<?xml version="1.0" encoding="utf-8"?>
<!-- Generator: Adobe Illustrator 16.0.0, SVG Export Plug-In . SVG Version: 6.00 Build 0)  -->
<!DOCTYPE svg PUBLIC "-//W3C//DTD SVG 1.1//EN" "http://www.w3.org/Graphics/SVG/1.1/DTD/svg11.dtd">
<svg version="1.1" id="katman_1" xmlns="http://www.w3.org/2000/svg" xmlns:xlink="http://www.w3.org/1999/xlink" x="0px" y="0px"
	 width="494.622px" height="494.622px" viewBox="0 0 494.622 494.622" enable-background="new 0 0 494.622 494.622"
	 xml:space="preserve">
<path fill="#FFFFFF" d="M99.435,238.015c-1.09-33.531,3.191-74.877,24.39-107.477c23.951-36.817,65.249-55.695,122.48-55.695
	c57.23,0,98.53,18.878,122.48,55.695c21.198,32.599,25.481,73.946,24.389,107.477h19.169c1.341-37.074-3.493-83.385-27.809-121.044
	c-27.68-42.873-74.303-64.896-138.229-64.896s-110.549,22.023-138.224,64.896c-24.314,37.659-29.148,83.971-27.813,121.044H99.435z"
	/>
<path fill="#FFFFFF" d="M85.646,214.707c-4.149-1.972-8.583-3.095-13.209-3.095c-22.478,0-40.697,25.218-40.697,56.329
	c0,31.108,18.219,56.328,40.697,56.328c4.627,0,9.061-1.123,13.209-3.099V214.707z"/>
<path fill="#FFFFFF" d="M100.444,200.287c-3.405-1.844-7.242-2.985-11.385-2.985h-0.483c-13.292,0-24.069,10.775-24.069,24.067
	v97.725c0,13.287,10.777,24.066,24.069,24.066h0.483c4.144,0,7.98-1.145,11.385-2.983V200.287z"/>
<path fill="#FFFFFF" d="M412.366,321.185l-10.777-0.021c-0.013,4.026-1.605,93.88-112.337,103.15
	c-2.093-3.145-5.491-5.346-9.555-5.346h-42.215c-6.445,0-11.667,5.225-11.667,11.67v0.236c0,6.445,5.222,11.671,11.667,11.671
	h42.215c4.984,0,9.167-3.151,10.842-7.55C410.618,424.581,412.366,322.273,412.366,321.185"/>
<path fill="#FFFFFF" d="M406.975,214.707c4.151-1.972,8.584-3.095,13.211-3.095c22.478,0,40.696,25.218,40.696,56.329
	c0,31.108-18.219,56.328-40.696,56.328c-4.627,0-9.06-1.123-13.211-3.099V214.707z"/>
<path fill="#FFFFFF" d="M392.179,200.287c3.403-1.844,7.24-2.985,11.386-2.985h0.481c13.292,0,24.069,10.775,24.069,24.067v97.725
	c0,13.287-10.777,24.066-24.069,24.066h-0.481c-4.146,0-7.982-1.145-11.386-2.983V200.287z"/>
</svg>
